<svg width="53" height="60" viewBox="0 0 53 60" fill="none" xmlns="http://www.w3.org/2000/svg">
<path d="M4 26C1.79086 26 0 27.7909 0 30C0 32.2091 1.79086 34 4 34V26ZM51.7084 32.8284C53.2705 31.2663 53.2705 28.7337 51.7084 27.1716L26.2526 1.71573C24.6905 0.153632 22.1578 0.153632 20.5957 1.71573C19.0336 3.27783 19.0336 5.81049 20.5957 7.37258L43.2231 30L20.5957 52.6274C19.0336 54.1895 19.0336 56.7222 20.5957 58.2843C22.1578 59.8464 24.6905 59.8464 26.2526 58.2843L51.7084 32.8284ZM4 34H48.88V26H4V34Z" fill="#FF4D5A"/>
</svg>
