<svg width="1170" height="877" viewBox="0 0 1170 877" fill="none" xmlns="http://www.w3.org/2000/svg">
<path d="M1165 438.5C1165 557.383 1100.58 665.397 995.663 743.863C890.744 822.33 745.569 871.012 585 871.012C424.431 871.012 279.256 822.33 174.337 743.863C69.4194 665.397 5 557.383 5 438.5C5 319.617 69.4194 211.603 174.337 133.137C279.256 54.6695 424.431 5.98825 585 5.98825C745.569 5.98825 890.744 54.6695 995.663 133.137C1100.58 211.603 1165 319.617 1165 438.5Z" stroke="#7B4114" stroke-width="10"/>
<path d="M233.206 226.339L240.175 59.0276C240.261 56.9258 238.577 55.1681 236.475 55.1681H233.206V41.5614H279.237V56.471L275.193 56.5447C272.563 56.5939 270.695 59.1137 271.395 61.6457C285.506 111.955 300.428 159.658 316.677 202.998L324.962 63.3788C325.085 61.2893 323.45 59.5316 321.36 59.4947L310.851 59.3226V47.1541H350.38V59.5562H339.048L326.572 242.552H303.882C298.228 221.644 289.058 202.469 287.718 186.945C287.276 181.795 285.899 176.768 283.736 172.072C272.157 146.875 262.57 117.719 253.954 86.6343L252.012 227.654H261.083L261.734 244.838L222.18 243.547V227.015L233.206 226.339Z" fill="#B9804A"/>
<path d="M454.108 743.995L461.078 576.683C461.164 574.582 459.48 572.824 457.378 572.824H454.108V559.205H500.14V574.114L496.096 574.188C493.466 574.237 491.597 576.757 492.298 579.289C506.408 629.598 521.33 677.301 537.58 720.641L545.864 581.022C545.987 578.933 544.352 577.175 542.263 577.138L531.754 576.966V564.81H571.283V577.212H559.95L547.474 760.208H524.784C519.13 739.3 509.961 720.125 508.621 704.601C508.178 699.451 506.802 694.424 504.639 689.728C493.06 664.531 483.473 635.375 474.856 604.29L472.914 745.31H481.985L482.637 762.494L443.083 761.203V744.671L454.108 743.995Z" fill="#B75644"/>
<path d="M345.132 81.1891L375.762 77.5385V86.5358L364.823 87.7527C373.673 145.596 380.654 210.643 398.526 233.247C399.374 234.316 401.046 234.169 401.734 232.989C408.9 220.722 414.714 204.288 419.754 185.409C422.802 173.99 424.56 162.264 425.039 150.464L427.546 88.7237L415.39 89.2154L415.144 80.4639H451.859V91.8949C444.472 87.851 439.297 89.8545 437.269 100.401L432.684 156.388C432.365 160.223 431.861 164.046 431.136 167.832C421.413 219.05 407.118 249.963 389.443 244.826C359.624 233.8 355.74 151.164 350.368 89.5473L345.12 90.1987V81.1891H345.132Z" fill="#CC715F"/>
<path d="M694.419 575.368L725.246 574.09L724.558 583.063L713.557 583.431C717.908 641.791 719.863 707.182 735.94 731.101C736.702 732.232 738.374 732.208 739.16 731.089C747.248 719.412 754.328 703.482 760.805 685.045C764.726 673.897 767.381 662.343 768.77 650.617L776.035 589.258L763.878 588.803L764.309 580.064L800.913 582.891L800.028 594.285C792.972 589.688 787.662 591.286 784.823 601.647L775.936 657.119C775.322 660.917 774.523 664.69 773.515 668.402C759.871 718.724 743.229 748.445 726.008 741.942C697.123 728.655 699.643 645.958 699.029 584.107L693.743 584.353L694.419 575.368Z" fill="#C3A756"/>
<path d="M451.859 62.9609H519.929V58.0934H528.681V101.372H519.437C523.162 80.4639 513.599 71.2207 489.188 72.1303L474.057 72.6834L479.564 134.928H492.212L490.27 123.017H499.746L499.992 165.57H490.27V144.404L480.793 144.896L486.14 222.935C509.088 224.68 533.167 226.978 531.114 216.125L531.237 202.506L536.953 202.014V246.51L531.36 245.366L531.114 233.382L453.555 229.978L453.063 220.734L465.466 220.98C467.383 191.567 467.371 163.112 463.032 136.857C459.689 115.974 458.804 94.6975 459.627 73.1628L451.859 71.9459V62.9609Z" fill="#A2AEA4"/>
<path d="M585.258 90.1866L588.184 75.5966C573.287 62.3832 562.605 69.9056 556.373 81.8529C554.579 85.2946 553.596 89.1295 553.546 93.0259C553.399 103.941 556.091 113.909 567.436 120.989C596.677 138.885 617.216 156.942 616.184 192.87C615.901 202.555 613.984 212.18 609.915 220.98C599.271 243.965 580.256 250.074 553.534 240.61V251.955H540.849V208.197H554.136L553.485 225.381C565.42 238.791 589.315 242.38 594.33 214.355C594.563 207.841 595.337 202.211 596.554 197.43C597.353 194.271 597.12 190.928 595.755 187.965C590.974 177.604 584.459 168.213 573.262 161.465C560.159 151.496 549.675 141.934 545.385 133.305L540.21 127.835C536.105 123.496 533.819 117.732 533.941 111.758C534.077 105.588 534.593 99.9829 535.343 94.7344C543.639 67.3121 559.348 52.4517 590.777 64.2638L593.371 52.5992L603.745 54.8731L595.313 93.7757L585.258 90.1866Z" fill="#AF9783"/>
<path d="M1070.81 616.065L1073.72 601.475C1058.82 588.262 1048.14 595.784 1041.91 607.732C1040.12 611.173 1039.13 615.008 1039.08 618.905C1038.94 629.819 1041.63 639.788 1052.97 646.868C1082.22 664.764 1102.75 682.82 1101.72 718.748C1101.44 728.434 1099.52 738.058 1095.45 746.859C1084.81 769.844 1065.79 775.953 1039.07 766.489V777.834H1026.39V734.076H1039.67L1039.02 751.259C1050.96 764.669 1074.85 768.258 1079.87 740.234C1080.1 733.719 1080.88 728.09 1082.09 723.309C1082.89 720.15 1082.66 716.806 1081.29 713.844C1076.51 703.482 1070 694.092 1058.8 687.344C1045.7 677.375 1035.21 667.812 1030.92 659.184L1025.75 653.714C1021.64 649.375 1019.36 643.611 1019.48 637.637C1019.61 631.467 1020.13 625.862 1020.88 620.613C1029.18 593.191 1044.89 578.33 1076.32 590.143L1078.91 578.478L1089.28 580.752L1080.85 619.654L1070.81 616.065Z" fill="#9B4A39"/>
<path d="M619.625 79.9723L638.591 77.5386L641.013 239.467H630.319L633.232 251.942L690.621 246.522L687.696 230.715L675.539 233.628L672.135 72.1918L701.794 68.3077L705.199 96.996L719.789 95.5333L714.442 58.0934H664.354L619.625 69.7581V63.9319L605.035 67.3366L608.44 103.805L623.03 100.88L619.625 79.9723Z" fill="#D19A61"/>
<path d="M592.842 579.719L611.956 579.498L595.608 740.615L584.976 739.374L586.426 752.108L644.049 753.361L642.992 737.333L630.577 738.82L645.905 578.072L675.81 577.642L675.871 606.539L690.523 606.773L689.552 568.964L639.808 563.163L594.022 569.567L594.698 563.777L579.813 565.461L578.965 602.09L593.789 600.873L592.842 579.719Z" fill="#CB9359"/>
<path d="M833.338 237.033L817.285 237.758C813.118 214.81 808.337 193.226 800.261 178.919C799.536 170.413 795.75 167.193 789.813 161.17C810.389 141.024 814.839 113.319 797.348 75.3506C786.015 59.1996 770.909 51.8493 753.099 50.7922L752.374 47.1417L719.789 50.7922L722.223 61.4858H732.916C731.281 66.3287 732.437 78.1531 735.841 95.5332C732.498 112.274 733.961 142.683 735.841 174.297C736.96 202.457 737.956 231.317 741.84 245.133L719.789 246.51V257.129L768.746 253.884V243.191L758.04 242.539V175.108L761.285 172.515C773.613 174.027 781.701 179.386 781.062 192.624C788.24 208.713 792.309 224.692 794.349 240.597C794.349 240.597 795.16 242.38 794.349 242.38C793.538 242.38 784.626 242.539 784.626 242.539L785.597 254.376L834.309 249.189L833.338 237.033ZM771.499 155.012C765.734 155.712 761.949 158.281 758.851 161.502C756.602 154.999 756.417 136.808 755.778 121.186C750.345 107.235 751.808 88.5271 753.345 69.758C764.567 79.6035 774.523 90.3708 782.045 102.896C785.978 109.435 788.019 116.945 787.896 124.578C787.638 140.36 784.454 152.984 771.499 155.012Z" fill="#B79B47"/>
<path d="M908.586 742.065L892.533 742.803C888.366 719.855 883.597 698.258 875.522 683.963C874.784 675.458 870.998 672.237 865.062 666.215C885.638 646.057 890.087 618.364 872.596 580.395C861.264 564.244 846.157 556.894 828.347 555.837L827.622 552.186L795.037 555.837L797.471 566.531H808.177C806.53 571.373 807.697 583.198 811.09 600.566C807.747 617.319 809.209 647.728 811.09 679.342C812.208 707.502 813.204 736.362 817.088 750.178L795.037 751.554V762.174L843.994 758.929V748.236L833.301 747.584V680.153L836.533 677.56C848.862 679.071 856.949 684.418 856.31 697.656C863.488 713.758 867.557 729.737 869.597 745.642C869.597 745.642 870.408 747.424 869.597 747.424C868.786 747.424 859.875 747.584 859.875 747.584L860.846 759.409L909.557 754.234L908.586 742.065ZM846.747 660.057C840.983 660.757 837.197 663.314 834.099 666.534C831.85 660.044 831.666 641.841 831.027 626.218C825.594 612.28 827.056 593.572 828.593 574.803C839.815 584.636 849.771 595.403 857.293 607.928C861.239 614.48 863.267 621.99 863.144 629.623C862.886 645.405 859.715 658.016 846.747 660.057Z" fill="#7A847B"/>
<path d="M925.315 91.7967C917.755 63.2067 903.94 43.3436 880.905 36.3744C876.308 35.1698 871.638 34.0759 864.84 36.3744C861.682 36.3744 858.695 37.8125 856.728 40.3076C851.676 44.0197 848.653 48.4569 846.538 53.226C846.538 53.226 832.932 101.851 832.932 102.822C832.932 103.793 827.413 140.754 827.413 140.754C822.337 163.763 820.001 186.429 822.312 208.504C823.086 215.965 826.491 222.984 832.182 227.876C840.553 235.066 852.106 239.135 867.286 239.626C890.8 242.33 904.726 220.083 916.883 193.263C929.285 169.307 927.662 130.92 925.315 91.7967ZM882.934 220.255C876.616 228.171 869.548 233.358 860.157 230.223C836.164 211.417 840.184 163.726 844.277 119.686C848.198 77.8335 859.678 59.3348 874.797 47.0188C876.628 45.5315 879.172 45.1136 881.299 46.1461C891.034 50.8414 897.278 74.0232 901.973 105.416C909.532 153.131 906.546 193.693 882.934 220.255Z" fill="#B39D85"/>
<path d="M662.006 341.707C654.447 313.117 640.631 293.254 617.597 286.273C613 285.08 608.329 283.986 601.532 286.273C598.373 286.273 595.387 287.723 593.42 290.206C588.38 293.93 585.344 298.367 583.23 303.136C583.23 303.136 569.624 351.762 569.624 352.733C569.624 353.704 564.105 390.664 564.105 390.664C559.028 413.674 556.705 436.339 559.004 458.415C559.778 465.863 563.195 472.894 568.874 477.786C577.244 484.977 588.798 489.033 603.978 489.525C627.504 492.229 641.418 469.993 653.587 443.173C665.976 419.217 664.354 380.831 662.006 341.707ZM619.625 470.165C613.32 478.069 606.252 483.268 596.849 480.134C572.868 461.328 576.876 413.637 580.969 369.584C584.89 327.732 596.37 309.245 611.488 296.929C613.332 295.442 615.864 295.024 618.003 296.044C627.725 300.752 633.969 323.934 638.665 355.326C646.224 403.029 643.25 443.604 619.625 470.165Z" fill="#D4BB67"/>
<path d="M183.941 284.687V300.248H198.851L177.98 474H280.54V480.49H294.159V441.588H280.54L278.598 464.278L209.877 459.091L231.915 297.654H241.638L240.986 284.687H183.941Z" fill="#E6CBB2"/>
<path d="M306.475 304.624V319.214H327.383L316.923 456.817L299.666 459.25V473.84L350.38 472.378L352.667 457.308H338.077L345.132 319.693H364.344V304.624H306.475Z" fill="#BD614E"/>
<path d="M452.928 416.243C452.867 414.547 452.351 412.875 451.441 411.437C444.287 400.165 433.2 393.885 419.286 391.168C432.955 378.569 441.202 364.41 444.57 348.873C448.774 319.89 441.915 298.478 426.17 288.522C422.114 285.953 417.369 284.662 412.575 284.527L362.512 283.101V289.309H372.603V435.909C371.829 451.827 370.268 466.306 367.564 478.696L356.391 477.885L355.42 484.215C389.848 483.17 426.293 483.072 438.006 471.407C444.337 463.798 449.646 456.411 452.572 449.504C453.58 447.131 454.022 444.562 453.924 441.981L452.928 416.243ZM430.312 443.849C423.847 462.422 412.489 473.005 395.625 474.652L399.35 290.034C405.495 289.935 417.099 290.021 415.882 300.248C414.64 304.759 417.369 313.142 421.954 323.344C422.937 353.003 430.558 383.474 406.884 388.009C403.996 388.931 402.152 391.144 401.292 394.573C405.79 393.516 409.687 393.208 411.617 395.433C426.329 405.709 436.163 419.365 430.312 443.849Z" fill="#C7895F"/>
<path d="M543.824 478.868C541.956 456.374 537.359 434.348 530.475 412.727L520.421 399.76C533.02 392.459 538.993 382.367 541.341 370.752C549.601 319.214 523.186 290.476 494.412 289.296L492.224 283.101L462.073 284.933V295.479H472.287L467.26 480.478L445.541 481.056V491.282L494.166 489.758V478.536H486.386C485.402 451.519 486.681 428.19 490.602 409.163C502.475 410.994 508.596 415.149 510.096 421.159L521.404 479.507L511.669 481.056V491.282L558.107 489.758V478.868H543.824ZM497.251 393.934C494.584 397.842 492.101 400.239 490.282 397.166L490.602 359.247C486.509 340.798 488.488 323.577 492.224 306.726C508.842 321.156 525.608 339.63 522.043 368.638C520.433 385.539 511.964 393.712 497.251 393.934Z" fill="#869187"/>
<path d="M828.962 294.065C826.577 292.406 823.91 291.177 821.083 290.476L791.436 283.064C783.508 282.45 772.15 283.261 758.691 284.933V301.698H770.368L768.414 478.696C762.329 480.343 759.244 484.141 758.691 489.758C811.778 490.348 856.273 483.723 876.689 431.214C887.801 358.731 865.394 319.459 828.962 294.065ZM847.841 444.181C845.567 465.9 813.499 477.356 799.868 470.755L795.32 300.567C812.897 301.637 825.323 311.826 836.496 324.229C849.156 333.521 855.29 383.228 847.841 444.181Z" fill="#C5915F"/>
<path d="M871.183 300.568C888.195 293.377 924.024 289.542 957.74 281.442V267.835H964.217L970.375 315.489H963.246C961.956 300.58 964.844 289.05 942.498 293.451L908.709 300.58L914.056 390.209L926.458 388.992L922.807 366.376L932.284 363.942L939.094 412.568L929.371 413.539L927.675 398.949L914.056 401.136L916.244 474.64C927.294 473.103 939.487 471.407 953.524 469.453C966.971 463.946 969.527 454.309 967.548 442.952L966.823 434.926L974.849 434.434L982.138 481.363L973.141 484.042L971.199 478.696L891.206 487.201L889.989 476.741L897.77 475.77C894.869 444.784 892.976 415.862 894.119 393.11C893.394 364.139 890.567 334.775 886.093 305.103L872.228 308.52L871.183 300.568Z" fill="#CAA756"/>
<path d="M208.254 766.562C199.798 753.828 174.858 615.008 149.415 524.654C148.604 521.876 148.05 519.258 148.21 517.094C148.444 514.107 147.522 511.157 145.74 508.748L145.137 507.925C143.355 505.516 139.618 505.897 138.377 508.638C100.777 592.195 65.7712 685.094 32.2278 783.254L9.3656 785.774V795.742L75.2602 793.063L75.9854 782.615H44.1382L84.0118 666.632L155.733 665.182L180.045 769.967L168.86 771.749C165.086 772.02 161.448 775.683 161.018 779.53C160.698 782.529 163.353 785.036 166.365 784.852L215.223 781.963C223.508 782.787 227.675 780.23 228.351 774.834C231.092 770.373 219.058 768.578 208.254 766.562ZM90.2559 654.562L127.856 555.37L154.11 654.562H90.2559Z" fill="#F8DBC9"/>
<path d="M165.455 561.368H216.514V570.611H208.733L272.92 695.087L324.458 577.409L310.359 574.004V565.252L355.42 564.761V574.483H341.973C332.509 604.02 316.53 634.453 302.591 669.791C290.521 693.145 279.852 721.022 270.179 752.132C254.986 741.365 244.87 726.541 239.388 708.042C213.281 659.86 192.349 613.853 177.992 570.599L165.467 570.919V561.368H165.455Z" fill="#B47A47"/>
<path d="M1041.69 703.187L1029.05 702.216C1004.07 641.521 964.021 544.246 960.235 535.04C959.448 533.122 956.719 533.172 955.994 535.126C940.962 575.663 925.364 648.171 909.668 726.209L897.438 730.093V736.583L939.905 729.442V722.964L918.186 726.209L934.066 644.508L982.372 638.03L1008.95 706.101L997.933 709.677L998.904 717.458L1044.28 709.997L1041.69 703.187ZM937.311 635.105L952.872 565.744L979.778 630.569L937.311 635.105Z" fill="#C2A792"/>
<path d="M345.378 551.646L348.291 542.402L439.223 536.085V521.495H445.541V574.016H439.703C439.383 555.899 438.756 544.984 423.834 547.442C422.482 547.663 421.118 547.811 419.754 547.872L385.485 549.458L379.646 643.795C379.646 643.795 392.049 644.287 392.049 643.795C392.049 643.303 392.049 618.511 392.049 618.511L402.263 619.003V669.816H391.569L391.323 655.472L377.704 656.762L372.112 730.597H409.884C417.074 729.528 423.146 724.919 428.038 716.499L427.792 696.562H437.269L437.515 748.838H428.038V742.999H343.19V731.089L352.667 732.06C353.589 700.483 354.474 668.82 358.505 649.4L360.693 551.179L345.378 551.646Z" fill="#849084"/>
</svg>
